{
    "asset" : {
        "version" : "2.0",
        "generator" : "Khronos Blender glTF 2.0 I/O"
    },
    "scene" : 0,
    "scenes" : [
        {
            "nodes" : [
                0,
                1,
                2,
                3,
                4,
                5,
                6,
                7,
                8,
                9,
                10,
                11,
                12
            ],
            "name" : "Scene"
        }
    ],
    "nodes" : [
        {
            "scale" : [
                0.5011694431304932,
                0.5011694431304932,
                0.5011694431304932
            ],
            "rotation" : [
                0.5000001788139343,
                -0.5000001192092896,
                -0.4999998211860657,
                0.49999988079071045
            ],
            "mesh" : 0,
            "translation" : [
                0,
                1.1004917621612549,
                -0.8871267437934875
            ],
            "name" : "Torus.005"
        },
        {
            "scale" : [
                0.3873783349990845,
                0.3873783349990845,
                0.3873783349990845
            ],
            "rotation" : [
                0.5000001788139343,
                -0.5000001192092896,
                -0.4999998211860657,
                0.49999988079071045
            ],
            "mesh" : 1,
            "translation" : [
                0,
                1.1004917621612549,
                0.6857035160064697
            ],
            "name" : "Sphere.005"
        },
        {
            "scale" : [
                0.3873783349990845,
                0.3873783349990845,
                0.3873783349990845
            ],
            "rotation" : [
                -0.5000000596046448,
                0.5,
                -0.5,
                0.5000000596046448
            ],
            "mesh" : 2,
            "translation" : [
                0,
                1.1004917621612549,
                -0.6857035756111145
            ],
            "name" : "Sphere.004"
        },
        {
            "scale" : [
                0.5011694431304932,
                0.5011694431304932,
                0.5011694431304932
            ],
            "rotation" : [
                -0.5000000596046448,
                0.5,
                -0.5,
                0.5000000596046448
            ],
            "mesh" : 3,
            "translation" : [
                0,
                1.1004917621612549,
                0.8871267437934875
            ],
            "name" : "Torus.004"
        },
        {
            "scale" : [
                0.5011694431304932,
                0.5011694431304932,
                0.5011694431304932
            ],
            "rotation" : [
                0,
                0,
                -0.7071068286895752,
                0.7071068286895752
            ],
            "mesh" : 4,
            "translation" : [
                -0.8871266841888428,
                1.1004917621612549,
                0
            ],
            "name" : "Torus.003"
        },
        {
            "scale" : [
                0.3873783349990845,
                0.3873783349990845,
                0.3873783349990845
            ],
            "rotation" : [
                0,
                0,
                -0.7071068286895752,
                0.7071068286895752
            ],
            "mesh" : 5,
            "translation" : [
                0.6857036352157593,
                1.1004917621612549,
                0
            ],
            "name" : "Sphere.003"
        },
        {
            "scale" : [
                0.3873783349990845,
                0.3873783349990845,
                0.3873783349990845
            ],
            "rotation" : [
                0.7071068286895752,
                -0.7071068286895752,
                0,
                -1.994960712181637e-07
            ],
            "mesh" : 6,
            "translation" : [
                -0.685703456401825,
                1.1004917621612549,
                0
            ],
            "name" : "Sphere.002"
        },
        {
            "scale" : [
                0.5011694431304932,
                0.5011694431304932,
                0.5011694431304932
            ],
            "rotation" : [
                0.7071068286895752,
                -0.7071068286895752,
                0,
                -1.994960712181637e-07
            ],
            "mesh" : 7,
            "translation" : [
                0.8871268033981323,
                1.1004917621612549,
                0
            ],
            "name" : "Torus.002"
        },
        {
            "scale" : [
                0.30000001192092896,
                0.30000001192092896,
                0.30000001192092896
            ],
            "mesh" : 8,
            "translation" : [
                0,
                1.1021020412445068,
                0
            ],
            "name" : "Cube"
        },
        {
            "scale" : [
                0.5011694431304932,
                0.5011694431304932,
                0.5011694431304932
            ],
            "rotation" : [
                1,
                0,
                0,
                -1.6292068494294654e-07
            ],
            "mesh" : 9,
            "translation" : [
                0,
                1.9876185655593872,
                0
            ],
            "name" : "Torus.001"
        },
        {
            "scale" : [
                0.3873783349990845,
                0.3873783349990845,
                0.3873783349990845
            ],
            "rotation" : [
                1,
                0,
                0,
                -1.6292068494294654e-07
            ],
            "mesh" : 10,
            "translation" : [
                0,
                0.41478830575942993,
                0
            ],
            "name" : "Sphere.001"
        },
        {
            "scale" : [
                0.3873783349990845,
                0.3873783349990845,
                0.3873783349990845
            ],
            "mesh" : 11,
            "translation" : [
                0,
                1.7861953973770142,
                0
            ],
            "name" : "Sphere"
        },
        {
            "scale" : [
                0.5011694431304932,
                0.5011694431304932,
                0.5011694431304932
            ],
            "mesh" : 12,
            "translation" : [
                0,
                0.2133650779724121,
                0
            ],
            "name" : "Torus"
        }
    ],
    "meshes" : [
        {
            "primitives" : [
                {
                    "indices" : 2,
                    "attributes" : {
                        "POSITION" : 0,
                        "NORMAL" : 1
                    }
                }
            ],
            "name" : "Torus.006"
        },
        {
            "primitives" : [
                {
                    "indices" : 5,
                    "attributes" : {
                        "POSITION" : 3,
                        "NORMAL" : 4
                    }
                }
            ],
            "name" : "Sphere.005"
        },
        {
            "primitives" : [
                {
                    "indices" : 8,
                    "attributes" : {
                        "POSITION" : 6,
                        "NORMAL" : 7
                    }
                }
            ],
            "name" : "Sphere.004"
        },
        {
            "primitives" : [
                {
                    "indices" : 11,
                    "attributes" : {
                        "POSITION" : 9,
                        "NORMAL" : 10
                    }
                }
            ],
            "name" : "Torus.005"
        },
        {
            "primitives" : [
                {
                    "indices" : 14,
                    "attributes" : {
                        "POSITION" : 12,
                        "NORMAL" : 13
                    }
                }
            ],
            "name" : "Torus.004"
        },
        {
            "primitives" : [
                {
                    "indices" : 17,
                    "attributes" : {
                        "POSITION" : 15,
                        "NORMAL" : 16
                    }
                }
            ],
            "name" : "Sphere.003"
        },
        {
            "primitives" : [
                {
                    "indices" : 20,
                    "attributes" : {
                        "POSITION" : 18,
                        "NORMAL" : 19
                    }
                }
            ],
            "name" : "Sphere.002"
        },
        {
            "primitives" : [
                {
                    "indices" : 23,
                    "attributes" : {
                        "POSITION" : 21,
                        "NORMAL" : 22
                    }
                }
            ],
            "name" : "Torus.003"
        },
        {
            "primitives" : [
                {
                    "indices" : 26,
                    "attributes" : {
                        "POSITION" : 24,
                        "NORMAL" : 25
                    }
                }
            ],
            "name" : "Cube"
        },
        {
            "primitives" : [
                {
                    "indices" : 29,
                    "attributes" : {
                        "POSITION" : 27,
                        "NORMAL" : 28
                    }
                }
            ],
            "name" : "Torus.002"
        },
        {
            "primitives" : [
                {
                    "indices" : 32,
                    "attributes" : {
                        "POSITION" : 30,
                        "NORMAL" : 31
                    }
                }
            ],
            "name" : "Sphere.001"
        },
        {
            "primitives" : [
                {
                    "indices" : 35,
                    "attributes" : {
                        "POSITION" : 33,
                        "NORMAL" : 34
                    }
                }
            ],
            "name" : "Sphere"
        },
        {
            "primitives" : [
                {
                    "indices" : 38,
                    "attributes" : {
                        "POSITION" : 36,
                        "NORMAL" : 37
                    }
                }
            ],
            "name" : "Torus"
        }
    ],
    "accessors" : [
        {
            "count" : 2304,
            "bufferView" : 0,
            "max" : [
                1.25,
                0.25,
                1.25
            ],
            "type" : "VEC3",
            "min" : [
                -1.25,
                -0.25,
                -1.25
            ],
            "componentType" : 5126
        },
        {
            "count" : 2304,
            "bufferView" : 1,
            "componentType" : 5126,
            "type" : "VEC3"
        },
        {
            "count" : 3456,
            "bufferView" : 2,
            "componentType" : 5123,
            "type" : "SCALAR"
        },
        {
            "count" : 1984,
            "bufferView" : 3,
            "max" : [
                1.000000238418579,
                1,
                1.0000003576278687
            ],
            "type" : "VEC3",
            "min" : [
                -0.9999998211860657,
                -1,
                -1
            ],
            "componentType" : 5126
        },
        {
            "count" : 1984,
            "bufferView" : 4,
            "componentType" : 5126,
            "type" : "VEC3"
        },
        {
            "count" : 2880,
            "bufferView" : 5,
            "componentType" : 5123,
            "type" : "SCALAR"
        },
        {
            "count" : 1984,
            "bufferView" : 6,
            "max" : [
                1.000000238418579,
                1,
                1.0000003576278687
            ],
            "type" : "VEC3",
            "min" : [
                -0.9999998211860657,
                -1,
                -1
            ],
            "componentType" : 5126
        },
        {
            "count" : 1984,
            "bufferView" : 7,
            "componentType" : 5126,
            "type" : "VEC3"
        },
        {
            "count" : 2880,
            "bufferView" : 8,
            "componentType" : 5123,
            "type" : "SCALAR"
        },
        {
            "count" : 2304,
            "bufferView" : 9,
            "max" : [
                1.25,
                0.25,
                1.25
            ],
            "type" : "VEC3",
            "min" : [
                -1.25,
                -0.25,
                -1.25
            ],
            "componentType" : 5126
        },
        {
            "count" : 2304,
            "bufferView" : 10,
            "componentType" : 5126,
            "type" : "VEC3"
        },
        {
            "count" : 3456,
            "bufferView" : 11,
            "componentType" : 5123,
            "type" : "SCALAR"
        },
        {
            "count" : 2304,
            "bufferView" : 12,
            "max" : [
                1.25,
                0.25,
                1.25
            ],
            "type" : "VEC3",
            "min" : [
                -1.25,
                -0.25,
                -1.25
            ],
            "componentType" : 5126
        },
        {
            "count" : 2304,
            "bufferView" : 13,
            "componentType" : 5126,
            "type" : "VEC3"
        },
        {
            "count" : 3456,
            "bufferView" : 14,
            "componentType" : 5123,
            "type" : "SCALAR"
        },
        {
            "count" : 1984,
            "bufferView" : 15,
            "max" : [
                1.000000238418579,
                1,
                1.0000003576278687
            ],
            "type" : "VEC3",
            "min" : [
                -0.9999998211860657,
                -1,
                -1
            ],
            "componentType" : 5126
        },
        {
            "count" : 1984,
            "bufferView" : 16,
            "componentType" : 5126,
            "type" : "VEC3"
        },
        {
            "count" : 2880,
            "bufferView" : 17,
            "componentType" : 5123,
            "type" : "SCALAR"
        },
        {
            "count" : 1984,
            "bufferView" : 18,
            "max" : [
                1.000000238418579,
                1,
                1.0000003576278687
            ],
            "type" : "VEC3",
            "min" : [
                -0.9999998211860657,
                -1,
                -1
            ],
            "componentType" : 5126
        },
        {
            "count" : 1984,
            "bufferView" : 19,
            "componentType" : 5126,
            "type" : "VEC3"
        },
        {
            "count" : 2880,
            "bufferView" : 20,
            "componentType" : 5123,
            "type" : "SCALAR"
        },
        {
            "count" : 2304,
            "bufferView" : 21,
            "max" : [
                1.25,
                0.25,
                1.25
            ],
            "type" : "VEC3",
            "min" : [
                -1.25,
                -0.25,
                -1.25
            ],
            "componentType" : 5126
        },
        {
            "count" : 2304,
            "bufferView" : 22,
            "componentType" : 5126,
            "type" : "VEC3"
        },
        {
            "count" : 3456,
            "bufferView" : 23,
            "componentType" : 5123,
            "type" : "SCALAR"
        },
        {
            "count" : 24,
            "bufferView" : 24,
            "max" : [
                1,
                1,
                1
            ],
            "type" : "VEC3",
            "min" : [
                -1,
                -1,
                -1
            ],
            "componentType" : 5126
        },
        {
            "count" : 24,
            "bufferView" : 25,
            "componentType" : 5126,
            "type" : "VEC3"
        },
        {
            "count" : 36,
            "bufferView" : 26,
            "componentType" : 5123,
            "type" : "SCALAR"
        },
        {
            "count" : 2304,
            "bufferView" : 27,
            "max" : [
                1.25,
                0.25,
                1.25
            ],
            "type" : "VEC3",
            "min" : [
                -1.25,
                -0.25,
                -1.25
            ],
            "componentType" : 5126
        },
        {
            "count" : 2304,
            "bufferView" : 28,
            "componentType" : 5126,
            "type" : "VEC3"
        },
        {
            "count" : 3456,
            "bufferView" : 29,
            "componentType" : 5123,
            "type" : "SCALAR"
        },
        {
            "count" : 1984,
            "bufferView" : 30,
            "max" : [
                1.000000238418579,
                1,
                1.0000003576278687
            ],
            "type" : "VEC3",
            "min" : [
                -0.9999998211860657,
                -1,
                -1
            ],
            "componentType" : 5126
        },
        {
            "count" : 1984,
            "bufferView" : 31,
            "componentType" : 5126,
            "type" : "VEC3"
        },
        {
            "count" : 2880,
            "bufferView" : 32,
            "componentType" : 5123,
            "type" : "SCALAR"
        },
        {
            "count" : 1984,
            "bufferView" : 33,
            "max" : [
                1.000000238418579,
                1,
                1.0000003576278687
            ],
            "type" : "VEC3",
            "min" : [
                -0.9999998211860657,
                -1,
                -1
            ],
            "componentType" : 5126
        },
        {
            "count" : 1984,
            "bufferView" : 34,
            "componentType" : 5126,
            "type" : "VEC3"
        },
        {
            "count" : 2880,
            "bufferView" : 35,
            "componentType" : 5123,
            "type" : "SCALAR"
        },
        {
            "count" : 2304,
            "bufferView" : 36,
            "max" : [
                1.25,
                0.25,
                1.25
            ],
            "type" : "VEC3",
            "min" : [
                -1.25,
                -0.25,
                -1.25
            ],
            "componentType" : 5126
        },
        {
            "count" : 2304,
            "bufferView" : 37,
            "componentType" : 5126,
            "type" : "VEC3"
        },
        {
            "count" : 3456,
            "bufferView" : 38,
            "componentType" : 5123,
            "type" : "SCALAR"
        }
    ],
    "bufferViews" : [
        {
            "byteOffset" : 0,
            "byteLength" : 27648,
            "buffer" : 0
        },
        {
            "byteOffset" : 27648,
            "byteLength" : 27648,
            "buffer" : 0
        },
        {
            "byteOffset" : 55296,
            "byteLength" : 6912,
            "buffer" : 0
        },
        {
            "byteOffset" : 62208,
            "byteLength" : 23808,
            "buffer" : 0
        },
        {
            "byteOffset" : 86016,
            "byteLength" : 23808,
            "buffer" : 0
        },
        {
            "byteOffset" : 109824,
            "byteLength" : 5760,
            "buffer" : 0
        },
        {
            "byteOffset" : 115584,
            "byteLength" : 23808,
            "buffer" : 0
        },
        {
            "byteOffset" : 139392,
            "byteLength" : 23808,
            "buffer" : 0
        },
        {
            "byteOffset" : 163200,
            "byteLength" : 5760,
            "buffer" : 0
        },
        {
            "byteOffset" : 168960,
            "byteLength" : 27648,
            "buffer" : 0
        },
        {
            "byteOffset" : 196608,
            "byteLength" : 27648,
            "buffer" : 0
        },
        {
            "byteOffset" : 224256,
            "byteLength" : 6912,
            "buffer" : 0
        },
        {
            "byteOffset" : 231168,
            "byteLength" : 27648,
            "buffer" : 0
        },
        {
            "byteOffset" : 258816,
            "byteLength" : 27648,
            "buffer" : 0
        },
        {
            "byteOffset" : 286464,
            "byteLength" : 6912,
            "buffer" : 0
        },
        {
            "byteOffset" : 293376,
            "byteLength" : 23808,
            "buffer" : 0
        },
        {
            "byteOffset" : 317184,
            "byteLength" : 23808,
            "buffer" : 0
        },
        {
            "byteOffset" : 340992,
            "byteLength" : 5760,
            "buffer" : 0
        },
        {
            "byteOffset" : 346752,
            "byteLength" : 23808,
            "buffer" : 0
        },
        {
            "byteOffset" : 370560,
            "byteLength" : 23808,
            "buffer" : 0
        },
        {
            "byteOffset" : 394368,
            "byteLength" : 5760,
            "buffer" : 0
        },
        {
            "byteOffset" : 400128,
            "byteLength" : 27648,
            "buffer" : 0
        },
        {
            "byteOffset" : 427776,
            "byteLength" : 27648,
            "buffer" : 0
        },
        {
            "byteOffset" : 455424,
            "byteLength" : 6912,
            "buffer" : 0
        },
        {
            "byteOffset" : 462336,
            "byteLength" : 288,
            "buffer" : 0
        },
        {
            "byteOffset" : 462624,
            "byteLength" : 288,
            "buffer" : 0
        },
        {
            "byteOffset" : 462912,
            "byteLength" : 72,
            "buffer" : 0
        },
        {
            "byteOffset" : 462984,
            "byteLength" : 27648,
            "buffer" : 0
        },
        {
            "byteOffset" : 490632,
            "byteLength" : 27648,
            "buffer" : 0
        },
        {
            "byteOffset" : 518280,
            "byteLength" : 6912,
            "buffer" : 0
        },
        {
            "byteOffset" : 525192,
            "byteLength" : 23808,
            "buffer" : 0
        },
        {
            "byteOffset" : 549000,
            "byteLength" : 23808,
            "buffer" : 0
        },
        {
            "byteOffset" : 572808,
            "byteLength" : 5760,
            "buffer" : 0
        },
        {
            "byteOffset" : 578568,
            "byteLength" : 23808,
            "buffer" : 0
        },
        {
            "byteOffset" : 602376,
            "byteLength" : 23808,
            "buffer" : 0
        },
        {
            "byteOffset" : 626184,
            "byteLength" : 5760,
            "buffer" : 0
        },
        {
            "byteOffset" : 631944,
            "byteLength" : 27648,
            "buffer" : 0
        },
        {
            "byteOffset" : 659592,
            "byteLength" : 27648,
            "buffer" : 0
        },
        {
            "byteOffset" : 687240,
            "byteLength" : 6912,
            "buffer" : 0
        }
    ],
    "buffers" : [
        {
            "byteLength" : 694152,
            "uri" : "data:application/octet-stream;base64,"
        }
    ]
}
